<?xml version="1.0" encoding="utf-8" ?>
<svg baseProfile="full" height="1024" version="1.1" width="1024" xmlns="http://www.w3.org/2000/svg" xmlns:ev="http://www.w3.org/2001/xml-events" xmlns:xlink="http://www.w3.org/1999/xlink"><defs /><polyline fill="black" points="597,663 596,664 592,664 591,665 589,665 588,666 586,666 585,667 584,667 583,668 582,668 581,669 580,669 578,671 577,671 568,680 568,681 565,684 565,685 564,686 564,687 563,688 563,689 562,690 562,691 561,692 561,694 560,695 560,698 559,699 559,703 558,704 558,715 559,716 559,720 560,721 560,723 561,724 561,726 562,727 562,728 563,729 563,730 564,731 564,732 565,733 565,734 567,736 567,737 576,746 577,746 579,748 580,748 581,749 582,749 583,750 584,750 585,751 586,751 587,752 589,752 590,753 592,753 593,754 597,754 598,755 610,755 611,754 615,754 616,753 618,753 619,752 621,752 622,751 623,751 624,750 625,750 626,749 627,749 629,747 630,747 633,744 634,744 638,740 638,739 641,736 641,735 643,733 643,732 644,731 644,730 645,729 645,728 646,727 646,725 647,724 647,722 648,721 648,718 649,717 649,700 648,699 648,696 647,695 647,693 646,692 646,691 645,690 645,689 644,688 644,687 643,686 643,685 641,683 641,682 638,679 638,678 634,674 633,674 630,671 629,671 627,669 626,669 625,668 624,668 623,667 622,667 621,666 619,666 618,665 616,665 615,664 612,664 611,663" /><polyline fill="black" points="414,663 413,664 409,664 408,665 405,665 404,666 403,666 402,667 401,667 400,668 399,668 398,669 397,669 396,670 395,670 393,672 392,672 383,681 383,682 381,684 381,685 379,687 379,688 378,689 378,691 377,692 377,693 376,694 376,697 375,698 375,701 374,702 374,716 375,717 375,720 376,721 376,724 377,725 377,726 378,727 378,729 380,731 380,732 381,733 381,734 383,736 383,737 391,745 392,745 395,748 396,748 397,749 398,749 399,750 400,750 401,751 402,751 403,752 405,752 406,753 408,753 409,754 414,754 415,755 425,755 426,754 431,754 432,753 434,753 435,752 437,752 438,751 439,751 440,750 441,750 442,749 443,749 444,748 445,748 447,746 448,746 458,736 458,735 460,733 460,732 461,731 461,730 462,729 462,728 463,727 463,725 464,724 464,722 465,721 465,717 466,716 466,701 465,700 465,697 464,696 464,694 463,693 463,691 462,690 462,689 461,688 461,687 460,686 460,685 458,683 458,682 447,671 446,671 444,669 443,669 442,668 441,668 440,667 439,667 438,666 436,666 435,665 433,665 432,664 428,664 427,663" /><polyline fill="black" points="237,661 236,662 236,666 237,667 237,673 238,674 238,677 239,678 239,682 240,683 240,685 241,686 241,689 242,690 242,692 243,693 243,695 244,696 244,698 245,699 245,700 246,701 246,703 247,704 247,705 248,706 248,707 249,708 249,709 250,710 250,712 251,713 251,714 252,715 252,716 253,717 253,718 255,720 255,721 256,722 256,723 257,724 257,725 259,727 259,728 261,730 261,731 263,733 263,734 265,736 265,737 268,740 268,741 272,745 272,746 276,750 276,751 303,778 304,778 310,784 311,784 315,788 316,788 320,792 321,792 324,795 325,795 328,798 329,798 332,801 333,801 335,803 336,803 339,806 340,806 342,808 343,808 345,810 346,810 348,812 349,812 351,814 352,814 354,816 355,816 356,817 357,817 359,819 360,819 361,820 362,820 364,822 365,822 366,823 367,823 369,825 370,825 371,826 372,826 373,827 374,827 376,829 377,829 378,830 379,830 380,831 381,831 382,832 383,832 384,833 385,833 387,835 388,835 389,836 390,836 391,837 392,837 393,838 394,838 395,839 396,839 397,840 398,840 399,841 400,841 401,842 402,842 403,843 404,843 405,844 406,844 407,845 408,845 409,846 410,846 411,847 412,847 413,848 414,848 415,849 416,849 417,850 418,850 419,851 421,851 422,852 423,852 424,853 425,853 426,854 427,854 428,855 429,855 430,856 431,856 432,857 434,857 435,858 436,858 437,859 438,859 439,860 441,860 442,861 443,861 444,862 445,862 446,863 448,863 449,864 450,864 451,865 453,865 454,866 455,866 456,867 458,867 459,868 460,868 461,869 463,869 464,870 465,870 466,871 468,871 469,872 471,872 472,873 474,873 475,874 476,874 477,875 479,875 480,876 482,876 483,877 485,877 486,878 487,878 488,879 490,879 491,880 493,880 494,881 496,881 497,882 499,882 500,883 502,883 503,884 506,884 507,885 509,885 510,886 515,886 516,885 518,885 519,884 521,884 522,883 524,883 525,882 528,882 529,881 530,881 531,880 533,880 534,879 536,879 537,878 539,878 540,877 542,877 543,876 545,876 546,875 547,875 548,874 550,874 551,873 553,873 554,872 555,872 556,871 558,871 559,870 560,870 561,869 563,869 564,868 565,868 566,867 568,867 569,866 570,866 571,865 573,865 574,864 575,864 576,863 578,863 579,862 580,862 581,861 582,861 583,860 584,860 585,859 587,859 588,858 589,858 590,857 591,857 592,856 593,856 594,855 595,855 596,854 598,854 599,853 600,853 601,852 602,852 603,851 604,851 605,850 606,850 607,849 608,849 609,848 610,848 611,847 612,847 613,846 614,846 615,845 616,845 617,844 618,844 619,843 620,843 621,842 622,842 623,841 624,841 625,840 626,840 627,839 628,839 629,838 630,838 631,837 632,837 633,836 634,836 636,834 637,834 638,833 639,833 640,832 641,832 642,831 643,831 644,830 645,830 647,828 648,828 649,827 650,827 651,826 652,826 654,824 655,824 656,823 657,823 659,821 660,821 661,820 662,820 664,818 665,818 667,816 668,816 669,815 670,815 672,813 673,813 675,811 676,811 678,809 679,809 681,807 682,807 684,805 685,805 687,803 688,803 691,800 692,800 694,798 695,798 698,795 699,795 703,791 704,791 708,787 709,787 713,783 714,783 732,765 733,765 733,764 744,753 744,752 749,747 749,746 752,743 752,742 755,739 755,738 758,735 758,734 760,732 760,731 762,729 762,728 764,726 764,725 765,724 765,723 766,722 766,721 768,719 768,718 769,717 769,716 770,715 770,714 771,713 771,712 772,711 772,710 773,709 773,707 774,706 774,705 775,704 775,703 776,702 776,700 777,699 777,698 778,697 778,695 779,694 779,692 780,691 780,689 781,688 781,685 782,684 782,681 783,680 783,677 784,676 784,670 785,669 785,661 762,661 760,663 760,667 759,668 759,672 758,673 758,676 757,677 757,680 756,681 756,683 755,684 755,686 754,687 754,689 753,690 753,691 752,692 752,694 751,695 751,696 750,697 750,698 749,699 749,700 748,701 748,702 747,703 747,704 746,705 746,706 745,707 745,708 744,709 744,710 743,711 743,712 741,714 741,715 739,717 739,718 737,720 737,721 735,723 735,724 732,727 732,728 728,732 728,733 723,738 723,739 703,759 702,759 696,765 695,765 691,769 690,769 686,773 685,773 682,776 681,776 679,778 678,778 675,781 674,781 673,782 672,782 670,784 669,784 667,786 666,786 663,783 663,782 654,773 653,773 651,771 650,771 649,770 648,770 647,769 646,769 645,768 643,768 642,767 640,767 639,766 634,766 633,765 576,765 575,766 570,766 569,767 567,767 566,768 563,768 562,769 561,769 560,770 559,770 558,771 557,771 556,772 555,772 554,773 553,773 551,775 550,775 548,777 547,777 538,786 538,787 535,790 535,791 534,792 534,793 533,794 533,795 532,796 532,797 531,798 531,799 530,800 530,802 529,803 529,805 528,806 528,810 527,811 527,852 525,854 524,854 523,855 522,855 521,856 519,856 518,857 517,857 516,858 515,858 514,859 508,859 507,858 506,858 505,857 503,857 502,856 501,856 500,855 499,855 498,854 497,854 495,852 495,811 494,810 494,806 493,805 493,803 492,802 492,800 491,799 491,798 490,797 490,796 489,795 489,794 488,793 488,792 487,791 487,790 484,787 484,786 474,776 473,776 471,774 470,774 468,772 467,772 466,771 465,771 464,770 462,770 461,769 460,769 459,768 457,768 456,767 453,767 452,766 447,766 446,765 391,765 390,766 386,766 385,767 382,767 381,768 379,768 378,769 377,769 376,770 375,770 374,771 373,771 372,772 371,772 369,774 368,774 359,783 359,784 356,787 355,787 352,784 351,784 349,782 348,782 345,779 344,779 340,775 339,775 336,772 335,772 331,768 330,768 325,763 324,763 315,754 314,754 303,743 303,742 294,733 294,732 290,728 290,727 286,723 286,722 284,720 284,719 282,717 282,716 280,714 280,713 279,712 279,711 277,709 277,708 276,707 276,706 275,705 275,704 274,703 274,702 273,701 273,700 272,699 272,698 271,697 271,695 270,694 270,693 269,692 269,690 268,689 268,688 267,687 267,685 266,684 266,682 265,681 265,678 264,677 264,674 263,673 263,670 262,669 262,665 261,664 261,662 260,661" /><polyline fill="black" points="187,539 186,540 186,644 188,646 213,646 214,645 215,645 215,608 216,607 248,607 250,605 250,585 248,583 216,583 215,582 215,564 216,563 255,563 256,562 257,562 258,561 258,540 257,539" /><polyline fill="black" points="640,538 638,540 638,644 640,646 680,646 681,645 691,645 692,644 696,644 697,643 700,643 701,642 703,642 704,641 706,641 707,640 708,640 709,639 710,639 711,638 712,638 714,636 715,636 717,634 718,634 727,625 727,624 729,622 729,621 731,619 731,618 732,617 732,615 733,614 733,613 734,612 734,610 735,609 735,605 736,604 736,582 735,581 735,577 734,576 734,573 733,572 733,571 732,570 732,568 731,567 731,566 730,565 730,564 729,563 729,562 727,560 727,559 723,555 723,554 722,554 717,549 716,549 714,547 713,547 712,546 711,546 710,545 709,545 708,544 707,544 706,543 704,543 703,542 701,542 700,541 698,541 697,540 692,540 691,539 682,539 681,538" /><polyline fill="black" points="527,538 525,540 525,644 526,645 527,645 528,646 550,646 552,644 552,591 553,590 555,592 555,593 557,595 557,596 559,598 559,599 561,601 561,602 564,605 564,606 566,608 566,609 568,611 568,612 570,614 570,615 572,617 572,618 574,620 574,621 577,624 577,625 579,627 579,628 581,630 581,631 583,633 583,634 585,636 585,637 587,639 587,640 590,643 590,644 591,645 592,645 593,646 615,646 617,644 617,540 616,539 615,539 614,538 593,538 592,539 591,539 590,540 590,596 589,597 588,596 588,595 586,593 586,592 584,590 584,589 581,586 581,585 579,583 579,582 577,580 577,579 575,577 575,576 572,573 572,572 570,570 570,569 568,567 568,566 565,563 565,562 563,560 563,559 561,557 561,556 559,554 559,553 556,550 556,549 554,547 554,546 551,543 551,542 548,539 547,539 546,538" /><polyline fill="black" points="435,538 433,540 433,644 435,646 505,646 507,644 507,624 506,623 462,623 460,621 460,615 461,614 460,613 460,611 461,610 460,609 461,608 460,607 460,605 461,604 498,604 499,603 500,603 500,602 501,601 501,583 500,582 500,581 499,581 498,580 462,580 460,578 460,575 461,574 461,573 460,572 461,571 460,570 460,569 461,568 460,567 461,566 460,565 460,564 462,562 506,562 507,561 507,540 505,538" /><polyline fill="black" points="389,538 388,539 385,539 384,540 384,541 383,542 383,612 384,613 383,614 383,631 384,632 384,633 383,634 383,638 384,639 384,640 383,641 383,642 384,643 384,644 386,646 410,646 412,644 412,540 411,539 408,539 407,538" /><polyline fill="black" points="287,538 286,539 275,539 275,540 274,541 274,644 276,646 301,646 302,645 303,645 303,612 305,610 306,610 307,611 308,610 312,610 315,613 315,614 316,615 316,616 317,617 317,618 318,619 318,620 319,621 319,622 321,624 321,625 322,626 322,627 323,628 323,629 324,630 324,631 325,632 325,633 326,634 326,635 327,636 327,637 329,639 329,640 330,641 330,642 331,643 331,644 332,645 333,645 334,646 363,646 364,645 364,643 363,642 363,641 362,640 362,639 360,637 360,636 359,635 359,634 358,633 358,632 356,630 356,629 355,628 355,627 354,626 354,625 352,623 352,622 351,621 351,620 350,619 350,618 348,616 348,615 347,614 347,613 346,612 346,611 344,609 344,608 343,607 343,606 344,605 345,605 346,604 347,604 348,603 350,603 351,602 352,602 359,595 359,594 361,592 361,591 362,590 362,588 363,587 363,584 364,583 364,566 363,565 363,563 362,562 362,560 361,559 361,558 360,557 360,556 359,555 359,554 356,551 356,550 354,548 353,548 350,545 349,545 347,543 346,543 345,542 343,542 342,541 340,541 339,540 336,540 335,539 326,539 325,538 314,538 313,539 312,538 295,538 294,539 293,539 292,538 290,538 289,539 288,539" /><polyline fill="black" points="781,536 780,537 776,537 775,538 773,538 772,539 770,539 769,540 768,540 767,541 766,541 764,543 763,543 755,551 755,552 753,554 753,556 752,557 752,558 751,559 751,562 750,563 750,576 751,577 751,579 752,580 752,582 753,583 753,584 755,586 755,587 762,594 763,594 765,596 766,596 767,597 768,597 769,598 770,598 771,599 772,599 773,600 775,600 776,601 778,601 779,602 782,602 783,603 785,603 786,604 789,604 790,605 793,605 794,606 797,606 798,607 800,607 801,608 802,608 805,611 805,612 806,613 806,616 805,617 805,618 801,622 800,622 799,623 795,623 794,624 787,624 786,623 782,623 781,622 779,622 778,621 777,621 775,619 774,619 770,615 770,614 767,611 764,611 762,613 761,613 760,614 759,614 757,616 756,616 755,617 754,617 753,618 752,618 750,620 749,620 746,623 747,624 747,626 749,628 749,629 751,631 751,632 756,637 757,637 759,639 760,639 762,641 763,641 764,642 765,642 766,643 768,643 769,644 770,644 771,645 773,645 774,646 777,646 778,647 782,647 783,648 801,648 802,647 806,647 807,646 810,646 811,645 813,645 814,644 816,644 817,643 818,643 820,641 821,641 823,639 824,639 829,634 829,633 831,631 831,630 832,629 832,628 833,627 833,625 834,624 834,622 835,621 835,608 834,607 834,604 833,603 833,602 832,601 832,600 831,599 831,598 828,595 828,594 824,590 823,590 821,588 820,588 819,587 818,587 817,586 816,586 815,585 814,585 813,584 812,584 811,583 809,583 808,582 806,582 805,581 802,581 801,580 798,580 797,579 794,579 793,578 790,578 789,577 787,577 786,576 784,576 782,574 781,574 779,572 779,571 778,570 778,567 779,566 779,565 780,564 780,563 781,562 782,562 783,561 784,561 785,560 787,560 788,559 795,559 796,560 799,560 800,561 801,561 802,562 803,562 806,565 806,566 808,568 808,569 809,570 809,571 813,571 814,570 815,570 816,569 817,569 818,568 819,568 820,567 822,567 823,566 824,566 825,565 826,565 827,564 828,564 829,563 830,563 831,562 832,562 832,560 831,559 831,557 830,556 830,555 828,553 828,552 821,545 820,545 818,543 817,543 815,541 814,541 813,540 811,540 810,539 809,539 808,538 805,538 804,537 801,537 800,536" /><polyline fill="black" points="730,397 729,398 729,402 730,403 730,404 731,405 731,406 732,407 732,408 733,409 733,410 734,411 734,412 735,413 735,414 736,415 736,416 738,418 738,419 739,420 739,421 740,422 740,423 741,424 741,425 742,426 742,427 743,428 743,429 744,430 744,431 745,432 745,433 746,434 746,435 748,437 748,438 749,439 749,440 750,441 750,442 751,443 751,444 752,445 752,446 753,447 753,448 754,449 754,450 756,452 756,453 757,454 757,455 758,456 758,457 759,458 759,459 760,460 760,461 761,462 761,463 762,464 762,465 763,466 763,467 764,468 764,469 765,470 765,471 766,472 766,473 767,474 767,517 769,519 797,519 800,516 800,475 799,474 800,473 800,472 801,471 801,470 802,469 802,468 803,467 803,466 805,464 805,463 806,462 806,461 807,460 807,459 808,458 808,457 809,456 809,455 810,454 810,453 811,452 811,451 812,450 812,449 813,448 813,447 814,446 814,445 816,443 816,442 817,441 817,440 818,439 818,438 819,437 819,436 820,435 820,434 821,433 821,432 822,431 822,430 823,429 823,428 824,427 824,426 825,425 825,424 826,423 826,422 827,421 827,420 828,419 828,418 830,416 830,415 831,414 831,413 832,412 832,411 833,410 833,409 834,408 834,407 835,406 835,405 836,404 836,403 837,402 837,398 836,397 805,397 803,399 803,400 802,401 802,402 801,403 801,404 800,405 800,406 799,407 799,408 798,409 798,410 797,411 797,413 796,414 796,415 795,416 795,417 794,418 794,419 793,420 793,422 792,423 792,424 791,425 791,426 790,427 790,428 789,429 789,430 788,431 788,432 787,433 787,435 786,436 786,437 785,438 785,440 783,442 782,441 782,440 781,439 781,437 780,436 780,435 779,434 779,433 778,432 778,431 777,430 777,429 776,428 776,427 775,426 775,424 774,423 774,422 773,421 773,420 772,419 772,418 771,417 771,415 770,414 770,413 769,412 769,411 768,410 768,409 767,408 767,407 766,406 766,404 765,403 765,402 764,401 764,400 761,397" /><polyline fill="black" points="668,397 666,399 666,400 665,401 665,403 664,404 664,406 663,407 663,409 662,410 662,412 661,413 661,415 660,416 660,417 659,418 659,420 658,421 658,423 657,424 657,426 656,427 656,429 655,430 655,432 654,433 654,435 653,436 653,438 652,439 652,441 651,442 651,444 650,445 650,447 649,448 649,450 648,451 648,453 647,454 647,456 646,457 646,459 645,460 645,462 644,463 644,465 643,466 643,468 642,469 642,471 641,472 641,474 640,475 640,477 639,478 639,480 638,481 638,482 637,483 637,485 636,486 636,488 635,489 635,491 634,492 634,494 633,495 633,497 632,498 632,500 631,501 631,503 630,504 630,506 629,507 629,509 628,510 628,512 627,513 627,515 626,516 627,517 627,518 628,518 629,519 659,519 661,517 661,515 662,514 662,512 663,511 663,508 664,507 664,504 665,503 665,501 667,499 668,500 669,500 670,499 671,500 682,500 683,499 684,500 703,500 704,499 706,501 706,503 707,504 707,506 708,507 708,509 709,510 709,513 710,514 710,516 711,517 711,518 712,519 742,519 744,517 744,514 743,513 743,511 742,510 742,508 741,507 741,505 740,504 740,502 739,501 739,500 738,499 738,497 737,496 737,493 736,492 736,491 735,490 735,488 734,487 734,485 733,484 733,482 732,481 732,479 731,478 731,476 730,475 730,473 729,472 729,470 728,469 728,467 727,466 727,464 726,463 726,461 725,460 725,458 724,457 724,455 723,454 723,452 722,451 722,449 721,448 721,446 720,445 720,443 719,442 719,440 718,439 718,437 717,436 717,434 716,433 716,431 715,430 715,428 714,427 714,425 713,424 713,422 712,421 712,419 711,418 711,416 710,415 710,413 709,412 709,410 708,409 708,407 707,406 707,404 706,403 706,401 705,400 705,399 703,397" /><polyline fill="black" points="534,397 532,399 532,512 531,513 531,514 532,515 532,517 533,518 534,518 535,519 613,519 615,517 615,493 613,491 566,491 565,490 565,477 564,476 565,475 565,421 564,420 565,419 565,408 564,407 564,403 565,402 564,401 564,399 562,397" /><polyline fill="black" points="412,397 410,399 410,516 411,517 411,518 412,518 413,519 441,519 442,518 442,517 443,516 443,481 442,480 444,478 454,478 455,479 455,480 456,481 456,482 457,483 457,484 458,485 458,486 459,487 459,488 460,489 460,490 462,492 462,493 463,494 463,495 464,496 464,497 465,498 465,499 466,500 466,501 468,503 468,504 469,505 469,506 470,507 470,508 471,509 471,510 472,511 472,512 473,513 473,514 474,515 474,516 477,519 509,519 510,518 510,515 509,514 509,513 507,511 507,510 506,509 506,508 504,506 504,505 503,504 503,503 502,502 502,501 501,500 501,499 499,497 499,496 498,495 498,494 497,493 497,492 495,490 495,489 494,488 494,487 493,486 493,485 491,483 491,482 490,481 490,480 489,479 489,478 488,477 488,476 486,474 487,473 488,473 489,472 491,472 492,471 493,471 494,470 495,470 497,468 498,468 503,463 503,462 505,460 505,459 506,458 506,456 507,455 507,453 508,452 508,449 509,448 509,430 508,429 508,426 507,425 507,423 506,422 506,420 505,419 505,418 504,417 504,416 502,414 502,413 494,405 493,405 491,403 490,403 489,402 488,402 487,401 486,401 485,400 483,400 482,399 480,399 479,398 474,398 473,397" /><polyline fill="black" points="318,397 316,399 316,401 315,402 315,404 314,405 314,407 313,408 313,410 312,411 312,413 311,414 311,416 310,417 310,419 309,420 309,422 308,423 308,424 307,425 307,427 306,428 306,430 305,431 305,433 304,434 304,436 303,437 303,439 302,440 302,442 301,443 301,445 300,446 300,448 299,449 299,451 298,452 298,454 297,455 297,457 296,458 296,460 295,461 295,463 294,464 294,465 293,466 293,468 292,469 292,471 291,472 291,474 290,475 290,477 289,478 289,480 288,481 288,483 287,484 287,486 286,487 286,489 285,490 285,492 284,493 284,495 283,496 283,498 282,499 282,501 281,502 281,504 280,505 280,506 279,507 279,509 278,510 278,512 277,513 277,517 278,518 279,518 280,519 309,519 310,518 310,517 311,516 311,513 312,512 312,509 313,508 313,506 314,505 314,502 316,500 318,500 319,499 320,500 336,500 337,499 338,500 339,500 340,499 341,500 349,500 350,499 351,500 355,500 356,501 356,503 357,504 357,507 358,508 358,510 359,511 359,513 360,514 360,517 362,519 392,519 394,517 394,514 393,513 393,511 392,510 392,508 391,507 391,505 390,504 390,502 389,501 389,499 388,498 388,496 387,495 387,493 386,492 386,490 385,489 385,487 384,486 384,484 383,483 383,481 382,480 382,479 381,478 381,476 380,475 380,473 379,472 379,470 378,469 378,467 377,466 377,464 376,463 376,461 375,460 375,458 374,457 374,455 373,454 373,452 372,451 372,449 371,448 371,446 370,445 370,443 369,442 369,440 368,439 368,437 367,436 367,434 366,433 366,431 365,430 365,428 364,427 364,425 363,424 363,422 362,421 362,419 361,418 361,416 360,415 360,413 359,412 359,410 358,409 358,407 357,406 357,404 356,403 356,401 355,400 355,399 354,398 353,398 352,397" /><polyline fill="black" points="187,397 185,399 185,517 186,518 187,518 188,519 215,519 216,518 217,518 217,485 218,484 218,483 219,482 244,482 245,481 250,481 251,480 254,480 255,479 257,479 258,478 259,478 260,477 261,477 262,476 263,476 264,475 265,475 268,472 269,472 273,468 273,467 276,464 276,463 277,462 277,461 278,460 278,459 279,458 279,457 280,456 280,453 281,452 281,449 282,448 282,430 281,429 281,426 280,425 280,423 279,422 279,421 278,420 278,419 277,418 277,417 276,416 276,415 274,413 274,412 268,406 267,406 265,404 264,404 262,402 261,402 260,401 258,401 257,400 255,400 254,399 251,399 250,398 245,398 244,397" /><polyline fill="black" points="719,174 719,175 718,176 718,178 717,179 717,180 716,181 716,182 715,183 715,185 714,186 714,187 713,188 713,190 712,191 712,192 711,193 711,194 710,195 710,198 711,198 712,199 714,199 715,200 718,200 719,201 721,201 722,202 724,202 725,203 728,203 729,204 731,204 732,205 735,205 736,206 738,206 739,207 741,207 742,208 745,208 746,209 748,209 749,210 752,210 753,211 755,211 758,214 758,215 759,216 759,373 760,374 785,374 786,373 786,208 785,207 785,204 784,203 784,201 783,200 783,199 782,198 782,197 777,192 776,192 774,190 773,190 772,189 770,189 769,188 767,188 766,187 764,187 763,186 760,186 759,185 757,185 756,184 754,184 753,183 750,183 749,182 747,182 746,181 744,181 743,180 740,180 739,179 737,179 736,178 733,178 732,177 730,177 729,176 727,176 726,175 723,175 722,174" /><polyline fill="black" points="309,171 308,172 306,172 305,173 302,173 301,174 299,174 298,175 296,175 295,176 292,176 291,177 289,177 288,178 286,178 285,179 283,179 282,180 280,180 279,181 276,181 275,182 273,182 272,183 269,183 268,184 266,184 265,185 263,185 262,186 260,186 259,187 256,187 255,188 253,188 252,189 250,189 249,190 248,190 247,191 246,191 245,192 244,192 238,198 238,199 237,200 237,201 236,202 236,204 235,205 235,374 261,374 261,345 262,344 261,343 261,342 262,341 261,340 262,339 261,338 261,319 262,318 261,317 261,316 262,315 262,314 261,313 261,273 262,272 261,271 261,218 262,217 262,215 265,212 266,212 267,211 269,211 270,210 273,210 274,209 276,209 277,208 280,208 281,207 283,207 284,206 286,206 287,205 290,205 291,204 293,204 294,203 295,203 299,199 299,198 300,197 300,196 301,195 301,194 302,193 302,192 303,191 303,190 304,189 304,188 305,187 305,186 306,185 306,184 307,183 307,182 308,181 308,180 309,179 309,178 310,177 310,176 311,175 311,174 312,173 312,171" /><polyline fill="black" points="525,64 524,65 510,65 509,66 502,66 501,67 496,67 495,68 490,68 489,69 484,69 483,70 480,70 479,71 475,71 474,72 472,72 471,73 468,73 467,74 464,74 463,75 461,75 460,76 458,76 457,77 455,77 454,78 452,78 451,79 449,79 448,80 446,80 445,81 444,81 443,82 441,82 440,83 439,83 438,84 437,84 436,85 434,85 433,86 432,86 431,87 430,87 429,88 428,88 427,89 426,89 425,90 424,90 423,91 422,91 421,92 420,92 419,93 418,93 417,94 416,94 415,95 414,95 413,96 412,96 410,98 409,98 408,99 407,99 405,101 404,101 403,102 402,102 400,104 399,104 397,106 396,106 394,108 393,108 390,111 389,111 385,115 384,115 381,118 380,118 375,123 374,123 349,148 349,149 344,154 344,155 339,160 339,161 336,164 336,165 333,168 333,169 330,172 330,173 328,175 328,176 326,178 326,179 324,181 324,182 322,184 322,185 321,186 321,187 319,189 319,190 318,191 318,192 317,193 317,194 315,196 315,197 314,198 314,199 313,200 313,201 312,202 312,203 311,204 311,205 310,206 310,207 309,208 309,209 308,210 308,211 307,212 307,213 306,214 306,215 305,216 305,217 304,218 304,219 303,220 303,221 302,222 302,223 301,224 301,225 300,226 300,227 299,228 299,230 298,231 298,232 297,233 297,234 296,235 296,237 295,238 295,239 294,240 294,241 293,242 293,244 292,245 292,247 291,248 291,249 290,250 290,252 289,253 289,255 288,256 288,258 287,259 287,261 286,262 286,264 285,265 285,268 284,269 284,271 283,272 283,275 282,276 282,279 281,280 281,284 280,285 280,290 279,291 279,296 278,297 278,305 279,306 279,308 280,309 280,310 281,311 281,312 289,320 290,320 292,322 293,322 295,324 296,324 298,326 299,326 300,327 301,327 302,328 303,328 305,330 306,330 307,331 308,331 309,332 310,332 311,333 312,333 313,334 314,334 315,335 316,335 317,336 318,336 319,337 320,337 321,338 322,338 323,339 325,339 326,340 327,340 328,341 330,341 331,342 332,342 333,343 335,343 336,344 337,344 338,345 340,345 341,346 342,346 343,347 345,347 346,348 348,348 349,349 351,349 352,350 354,350 355,351 357,351 358,352 361,352 362,353 364,353 365,354 368,354 369,355 372,355 373,356 376,356 377,357 380,357 381,358 384,358 385,359 389,359 390,360 394,360 395,361 399,361 400,362 405,362 406,363 412,363 413,364 422,364 423,365 436,365 437,366 458,366 459,365 473,365 474,364 482,364 483,363 490,363 491,362 495,362 496,361 501,361 502,360 506,360 507,359 510,359 511,358 514,358 515,357 518,357 519,356 522,356 523,355 525,355 526,354 529,354 530,353 532,353 533,352 535,352 536,351 538,351 539,350 541,350 542,349 543,349 544,348 546,348 547,347 548,347 549,346 551,346 552,345 553,345 554,344 555,344 556,343 557,343 558,342 560,342 561,341 562,341 563,340 564,340 565,339 566,339 567,338 568,338 569,337 570,337 572,335 573,335 574,334 575,334 576,333 577,333 578,332 579,332 581,330 582,330 583,329 584,329 586,327 587,327 589,325 590,325 592,323 593,323 595,321 596,321 598,319 599,319 602,316 603,316 607,312 608,312 613,307 614,307 625,296 626,296 632,290 632,289 643,278 643,277 648,272 648,271 653,266 653,265 656,262 656,261 659,258 659,257 662,254 662,253 664,251 664,250 666,248 666,247 668,245 668,244 670,242 670,241 672,239 672,238 674,236 674,235 675,234 675,233 677,231 677,230 678,229 678,228 680,226 680,225 681,224 681,223 682,222 682,221 684,219 684,218 685,217 685,216 686,215 686,214 687,213 687,212 688,211 688,210 689,209 689,208 690,207 690,206 691,205 691,204 692,203 692,202 693,201 693,199 694,198 694,197 695,196 695,195 696,194 696,193 697,192 697,190 698,189 698,188 699,187 699,185 700,184 700,183 701,182 701,180 702,179 702,177 703,176 703,174 704,173 704,171 705,170 705,168 706,167 706,165 707,164 707,162 708,161 708,158 709,157 709,154 710,153 710,149 711,148 711,144 712,143 712,137 713,136 713,128 712,127 712,124 711,123 711,122 710,121 710,120 702,112 701,112 699,110 698,110 696,108 695,108 693,106 692,106 690,104 689,104 688,103 687,103 686,102 685,102 683,100 682,100 681,99 680,99 679,98 678,98 677,97 676,97 675,96 674,96 673,95 672,95 671,94 670,94 669,93 668,93 667,92 665,92 664,91 663,91 662,90 661,90 660,89 659,89 658,88 656,88 655,87 654,87 653,86 651,86 650,85 648,85 647,84 645,84 644,83 643,83 642,82 640,82 639,81 637,81 636,80 633,80 632,79 630,79 629,78 627,78 626,77 623,77 622,76 619,76 618,75 616,75 615,74 611,74 610,73 607,73 606,72 602,72 601,71 597,71 596,70 591,70 590,69 585,69 584,68 578,68 577,67 570,67 569,66 559,66 558,65 544,65 543,64" /></svg>